<svg xmlns="http://www.w3.org/2000/svg" version="1.1" viewBox="1.576852798461914 1.162857174873352 585.6931762695312 490.6304626464844" width="589.00" height="493.00">
<g stroke-width="2.00" fill="none" stroke-linecap="butt">
<path stroke="#e61a13" d="&#10;  M 522.80 277.19&#10;  L 521.04 278.14&#10;  Q 520.58 278.39 520.45 278.89&#10;  Q 519.16 283.52 517.88 285.88&#10;  Q 515.02 291.12 508.27 300.87&#10;  Q 496.60 317.76 477.48 320.25&#10;  Q 474.67 320.62 457.50 320.57&#10;  Q 398.28 320.43 339.32 320.32&#10;  A 0.70 0.69 21.0 0 1 338.80 319.16&#10;  C 345.30 311.97 348.39 302.99 350.28 293.50&#10;  Q 351.43 287.71 351.43 277.93&#10;  Q 351.42 236.63 351.39 195.68&#10;  A 0.64 0.63 -64.4 0 1 352.52 195.28&#10;  Q 360.41 205.14 369.09 213.68&#10;  Q 378.35 222.79 378.40 222.84&#10;  Q 383.05 227.58 387.77 232.47&#10;  A 0.86 0.85 -46.1 0 0 389.03 232.44&#10;  Q 395.92 224.62 404.09 217.82&#10;  C 406.53 215.79 408.06 213.33 410.10 210.93&#10;  Q 411.53 209.24 415.14 206.33&#10;  C 418.26 203.81 421.09 200.25 423.41 198.00&#10;  Q 429.25 192.34 435.06 186.62&#10;  C 443.93 177.89 441.22 163.35 435.90 153.58&#10;  Q 435.66 153.13 435.20 152.90&#10;  C 432.66 151.59 430.43 150.35 428.51 148.07&#10;  C 422.60 141.06 415.92 135.16 409.66 128.55&#10;  C 405.36 124.01 399.55 119.18 396.15 115.80&#10;  Q 392.72 112.40 389.47 108.85&#10;  A 1.50 1.49 43.6 0 0 387.22 108.90&#10;  C 380.85 116.54 371.72 124.16 366.22 129.65&#10;  Q 359.51 136.34 352.72 142.79&#10;  A 0.36 0.35 69.1 0 1 352.12 142.52&#10;  C 352.54 132.55 352.16 119.48 352.17 112.67&#10;  Q 352.21 81.96 352.38 51.25&#10;  Q 352.42 43.99 351.16 39.75&#10;  Q 348.38 30.46 341.40 22.18&#10;  Q 341.37 22.14 336.13 16.84&#10;  Q 332.95 13.61 330.46 9.60"/>
<path stroke="#fd827a" d="&#10;  M 330.46 9.60&#10;  Q 401.02 10.66 470.75 9.82&#10;  Q 478.00 9.73 481.79 11.39&#10;  Q 494.03 16.72 502.91 29.80&#10;  Q 508.95 38.70 511.35 48.87&#10;  Q 512.80 55.03 512.79 68.75&#10;  C 512.79 103.66 512.46 138.60 512.72 173.51&#10;  Q 513.13 230.00 512.74 286.50&#10;  Q 512.74 286.84 513.05 286.70&#10;  Q 513.30 286.58 513.34 286.25&#10;  C 514.06 280.67 514.96 275.18 515.02 269.55&#10;  Q 515.38 236.28 514.88 203.00&#10;  Q 513.86 134.50 515.30 66.00&#10;  Q 515.49 56.79 512.07 44.19&#10;  C 510.63 38.91 507.89 34.61 505.10 29.94&#10;  C 502.39 25.40 498.31 21.72 494.98 17.30&#10;  C 491.71 12.97 481.61 8.76 477.00 8.61&#10;  Q 469.25 8.35 461.50 8.39&#10;  Q 396.38 8.73 331.25 8.21&#10;  Q 330.19 8.20 330.23 9.56"/>
<path stroke="#e61a13" d="&#10;  M 330.23 9.56&#10;  Q 322.75 7.93 324.72 1.42"/>
<path stroke="#e76e69" d="&#10;  M 330.23 9.56&#10;  Q 331.30 9.62 330.46 9.60"/>
<path stroke="#d36e6c" d="&#10;  M 334.80 236.28&#10;  Q 334.68 139.90 334.72 43.50&#10;  C 334.73 36.75 331.02 29.21 327.68 23.49&#10;  C 325.07 19.01 320.37 15.86 316.65 12.12&#10;  Q 314.89 10.35 312.59 9.36&#10;  Q 309.60 8.07 306.62 6.64"/>
<path stroke="#c9c9c9" d="&#10;  M 144.98 2.31&#10;  Q 141.51 4.95 137.30 5.76&#10;  Q 133.38 6.53 131.83 7.13&#10;  C 125.29 9.69 117.21 12.07 112.20 16.68&#10;  Q 110.19 18.53 105.90 23.39&#10;  Q 102.44 27.30 100.66 30.89&#10;  Q 97.74 36.76 96.29 43.13&#10;  Q 95.25 47.73 95.15 55.96&#10;  Q 94.41 115.98 94.60 176.00&#10;  C 94.67 201.69 94.09 227.39 94.24 253.09&#10;  C 94.30 263.67 93.54 277.33 93.84 289.74&#10;  Q 94.20 303.93 104.45 312.19&#10;  C 109.11 315.94 112.98 316.57 118.87 316.60&#10;  Q 146.39 316.75 173.91 316.76&#10;  C 177.62 316.76 182.02 317.25 185.25 317.25&#10;  Q 236.69 317.22 288.13 317.33&#10;  Q 292.06 317.34 302.60 315.32&#10;  Q 306.05 314.66 308.66 313.00&#10;  Q 319.83 305.87 326.38 294.40&#10;  C 329.05 289.71 329.89 284.24 331.42 278.87&#10;  C 332.06 276.61 332.50 273.64 332.41 271.75&#10;  Q 331.63 255.34 332.61 243.75&#10;  Q 332.73 242.32 334.29 242.36&#10;  Q 334.84 242.37 334.83 241.83&#10;  L 334.80 236.28"/>
<path stroke="#c6615f" d="&#10;  M 334.80 236.28&#10;  Q 335.74 259.29 335.44 282.31&#10;  Q 335.33 290.95 333.87 296.54&#10;  C 332.10 303.35 329.28 311.64 323.89 316.50&#10;  Q 316.39 323.26 306.94 329.07"/>
<path stroke="#c9c9c9" d="&#10;  M 121.71 1.58&#10;  Q 122.39 1.79 122.52 2.38&#10;  Q 122.63 2.93 122.09 3.09&#10;  C 117.98 4.24 113.88 4.35 110.20 6.11&#10;  Q 99.10 11.43 91.08 20.83&#10;  C 89.48 22.70 87.76 23.60 86.15 21.12&#10;  A 0.66 0.65 66.8 0 0 85.46 20.84&#10;  Q 84.36 21.09 84.21 18.98"/>
<path stroke="#d36e6c" d="&#10;  M 178.05 207.95&#10;  Q 181.75 211.48 184.94 215.48&#10;  C 187.80 219.10 191.03 221.44 194.39 224.37&#10;  C 196.71 226.41 200.05 231.98 203.81 228.81&#10;  C 212.96 221.08 221.61 213.13 229.81 204.39&#10;  C 240.09 193.45 257.96 181.58 253.42 164.74&#10;  Q 252.24 160.34 247.41 154.25&#10;  Q 243.10 148.81 238.41 143.67&#10;  C 234.96 139.88 230.25 137.18 226.92 132.40&#10;  C 222.62 126.24 216.01 122.63 211.43 116.51&#10;  C 207.34 111.06 200.95 108.94 195.34 113.92&#10;  Q 189.27 119.32 187.50 121.27&#10;  Q 176.84 133.07 169.14 140.36&#10;  Q 166.29 143.05 163.19 146.91&#10;  C 160.25 150.57 155.44 154.11 153.63 158.25&#10;  C 150.55 165.30 149.09 174.52 153.48 181.27&#10;  Q 157.24 187.06 162.99 192.62&#10;  C 166.22 195.74 168.65 198.48 171.47 201.52&#10;  Q 172.77 202.91 178.05 207.95"/>
</g>
<path fill="#fc2d24" d="&#10;  M 522.80 277.19&#10;  L 521.04 278.14&#10;  Q 520.58 278.39 520.45 278.89&#10;  Q 519.16 283.52 517.88 285.88&#10;  Q 515.02 291.12 508.27 300.87&#10;  Q 496.60 317.76 477.48 320.25&#10;  Q 474.67 320.62 457.50 320.57&#10;  Q 398.28 320.43 339.32 320.32&#10;  A 0.70 0.69 21.0 0 1 338.80 319.16&#10;  C 345.30 311.97 348.39 302.99 350.28 293.50&#10;  Q 351.43 287.71 351.43 277.93&#10;  Q 351.42 236.63 351.39 195.68&#10;  A 0.64 0.63 -64.4 0 1 352.52 195.28&#10;  Q 360.41 205.14 369.09 213.68&#10;  Q 378.35 222.79 378.40 222.84&#10;  Q 383.05 227.58 387.77 232.47&#10;  A 0.86 0.85 -46.1 0 0 389.03 232.44&#10;  Q 395.92 224.62 404.09 217.82&#10;  C 406.53 215.79 408.06 213.33 410.10 210.93&#10;  Q 411.53 209.24 415.14 206.33&#10;  C 418.26 203.81 421.09 200.25 423.41 198.00&#10;  Q 429.25 192.34 435.06 186.62&#10;  C 443.93 177.89 441.22 163.35 435.90 153.58&#10;  Q 435.66 153.13 435.20 152.90&#10;  C 432.66 151.59 430.43 150.35 428.51 148.07&#10;  C 422.60 141.06 415.92 135.16 409.66 128.55&#10;  C 405.36 124.01 399.55 119.18 396.15 115.80&#10;  Q 392.72 112.40 389.47 108.85&#10;  A 1.50 1.49 43.6 0 0 387.22 108.90&#10;  C 380.85 116.54 371.72 124.16 366.22 129.65&#10;  Q 359.51 136.34 352.72 142.79&#10;  A 0.36 0.35 69.1 0 1 352.12 142.52&#10;  C 352.54 132.55 352.16 119.48 352.17 112.67&#10;  Q 352.21 81.96 352.38 51.25&#10;  Q 352.42 43.99 351.16 39.75&#10;  Q 348.38 30.46 341.40 22.18&#10;  Q 341.37 22.14 336.13 16.84&#10;  Q 332.95 13.61 330.46 9.60&#10;  Q 401.02 10.66 470.75 9.82&#10;  Q 478.00 9.73 481.79 11.39&#10;  Q 494.03 16.72 502.91 29.80&#10;  Q 508.95 38.70 511.35 48.87&#10;  Q 512.80 55.03 512.79 68.75&#10;  C 512.79 103.66 512.46 138.60 512.72 173.51&#10;  Q 513.13 230.00 512.74 286.50&#10;  Q 512.74 286.84 513.05 286.70&#10;  Q 513.30 286.58 513.34 286.25&#10;  C 514.06 280.67 514.96 275.18 515.02 269.55&#10;  Q 515.38 236.28 514.88 203.00&#10;  Q 513.86 134.50 515.30 66.00&#10;  Q 515.49 56.79 512.07 44.19&#10;  C 510.63 38.91 507.89 34.61 505.10 29.94&#10;  C 502.39 25.40 498.31 21.72 494.98 17.30&#10;  C 491.71 12.97 481.61 8.76 477.00 8.61&#10;  Q 469.25 8.35 461.50 8.39&#10;  Q 396.38 8.73 331.25 8.21&#10;  Q 330.19 8.20 330.23 9.56&#10;  Q 322.75 7.93 324.72 1.42&#10;  Q 398.05 1.12 470.87 1.17&#10;  C 491.87 1.19 508.99 13.69 518.08 32.30&#10;  Q 520.99 38.26 521.53 44.89&#10;  C 521.89 49.26 522.56 53.77 522.58 58.06&#10;  Q 522.99 167.65 522.80 277.19&#10;  Z"/>
<path fill="#d5d5d5" d="&#10;  M 121.71 1.58&#10;  Q 122.39 1.79 122.52 2.38&#10;  Q 122.63 2.93 122.09 3.09&#10;  C 117.98 4.24 113.88 4.35 110.20 6.11&#10;  Q 99.10 11.43 91.08 20.83&#10;  C 89.48 22.70 87.76 23.60 86.15 21.12&#10;  A 0.66 0.65 66.8 0 0 85.46 20.84&#10;  Q 84.36 21.09 84.21 18.98&#10;  Q 92.83 10.19 103.74 5.42&#10;  Q 111.23 2.14 121.71 1.58&#10;  Z"/>
<path fill="#bcbcbc" d="&#10;  M 121.71 1.58&#10;  L 144.98 2.31&#10;  Q 141.51 4.95 137.30 5.76&#10;  Q 133.38 6.53 131.83 7.13&#10;  C 125.29 9.69 117.21 12.07 112.20 16.68&#10;  Q 110.19 18.53 105.90 23.39&#10;  Q 102.44 27.30 100.66 30.89&#10;  Q 97.74 36.76 96.29 43.13&#10;  Q 95.25 47.73 95.15 55.96&#10;  Q 94.41 115.98 94.60 176.00&#10;  C 94.67 201.69 94.09 227.39 94.24 253.09&#10;  C 94.30 263.67 93.54 277.33 93.84 289.74&#10;  Q 94.20 303.93 104.45 312.19&#10;  C 109.11 315.94 112.98 316.57 118.87 316.60&#10;  Q 146.39 316.75 173.91 316.76&#10;  C 177.62 316.76 182.02 317.25 185.25 317.25&#10;  Q 236.69 317.22 288.13 317.33&#10;  Q 292.06 317.34 302.60 315.32&#10;  Q 306.05 314.66 308.66 313.00&#10;  Q 319.83 305.87 326.38 294.40&#10;  C 329.05 289.71 329.89 284.24 331.42 278.87&#10;  C 332.06 276.61 332.50 273.64 332.41 271.75&#10;  Q 331.63 255.34 332.61 243.75&#10;  Q 332.73 242.32 334.29 242.36&#10;  Q 334.84 242.37 334.83 241.83&#10;  L 334.80 236.28&#10;  Q 335.74 259.29 335.44 282.31&#10;  Q 335.33 290.95 333.87 296.54&#10;  C 332.10 303.35 329.28 311.64 323.89 316.50&#10;  Q 316.39 323.26 306.94 329.07&#10;  Q 300.65 331.28 295.75 332.40&#10;  Q 293.46 332.92 289.75 332.91&#10;  Q 206.12 332.79 122.50 332.74&#10;  Q 109.23 332.73 97.22 326.28&#10;  C 91.97 323.45 88.65 318.92 84.63 314.76&#10;  C 74.76 304.56 70.52 288.78 71.03 274.89&#10;  C 71.93 250.60 71.55 227.14 71.29 206.00&#10;  Q 70.66 154.87 71.02 112.33&#10;  C 71.04 110.29 71.45 107.90 71.46 106.00&#10;  Q 71.51 95.06 71.48 55.47&#10;  C 71.47 44.48 73.50 35.49 79.52 26.38&#10;  Q 81.81 22.92 84.21 18.98&#10;  Q 84.36 21.09 85.46 20.84&#10;  A 0.66 0.65 66.8 0 1 86.15 21.12&#10;  C 87.76 23.60 89.48 22.70 91.08 20.83&#10;  Q 99.10 11.43 110.20 6.11&#10;  C 113.88 4.35 117.98 4.24 122.09 3.09&#10;  Q 122.63 2.93 122.52 2.38&#10;  Q 122.39 1.79 121.71 1.58&#10;  Z"/>
<path fill="#d00602" d="&#10;  M 324.72 1.42&#10;  Q 322.75 7.93 330.23 9.56&#10;  Q 331.30 9.62 330.46 9.60&#10;  Q 332.95 13.61 336.13 16.84&#10;  Q 341.37 22.14 341.40 22.18&#10;  Q 348.38 30.46 351.16 39.75&#10;  Q 352.42 43.99 352.38 51.25&#10;  Q 352.21 81.96 352.17 112.67&#10;  C 352.16 119.48 352.54 132.55 352.12 142.52&#10;  A 0.36 0.35 69.1 0 0 352.72 142.79&#10;  Q 359.51 136.34 366.22 129.65&#10;  C 371.72 124.16 380.85 116.54 387.22 108.90&#10;  A 1.50 1.49 43.6 0 1 389.47 108.85&#10;  Q 392.72 112.40 396.15 115.80&#10;  C 399.55 119.18 405.36 124.01 409.66 128.55&#10;  C 415.92 135.16 422.60 141.06 428.51 148.07&#10;  C 430.43 150.35 432.66 151.59 435.20 152.90&#10;  Q 435.66 153.13 435.90 153.58&#10;  C 441.22 163.35 443.93 177.89 435.06 186.62&#10;  Q 429.25 192.34 423.41 198.00&#10;  C 421.09 200.25 418.26 203.81 415.14 206.33&#10;  Q 411.53 209.24 410.10 210.93&#10;  C 408.06 213.33 406.53 215.79 404.09 217.82&#10;  Q 395.92 224.62 389.03 232.44&#10;  A 0.86 0.85 -46.1 0 1 387.77 232.47&#10;  Q 383.05 227.58 378.40 222.84&#10;  Q 378.35 222.79 369.09 213.68&#10;  Q 360.41 205.14 352.52 195.28&#10;  A 0.64 0.63 -64.4 0 0 351.39 195.68&#10;  Q 351.42 236.63 351.43 277.93&#10;  Q 351.43 287.71 350.28 293.50&#10;  C 348.39 302.99 345.30 311.97 338.80 319.16&#10;  A 0.70 0.69 21.0 0 0 339.32 320.32&#10;  Q 398.28 320.43 457.50 320.57&#10;  Q 474.67 320.62 477.48 320.25&#10;  Q 496.60 317.76 508.27 300.87&#10;  Q 515.02 291.12 517.88 285.88&#10;  Q 519.16 283.52 520.45 278.89&#10;  Q 520.58 278.39 521.04 278.14&#10;  L 522.80 277.19&#10;  Q 523.41 299.61 510.13 315.84&#10;  C 498.40 330.16 481.66 333.87 464.00 333.77&#10;  Q 398.25 333.40 332.50 333.06&#10;  Q 327.55 333.03 318.50 329.96&#10;  Q 315.85 329.06 306.94 329.07&#10;  Q 316.39 323.26 323.89 316.50&#10;  C 329.28 311.64 332.10 303.35 333.87 296.54&#10;  Q 335.33 290.95 335.44 282.31&#10;  Q 335.74 259.29 334.80 236.28&#10;  Q 334.68 139.90 334.72 43.50&#10;  C 334.73 36.75 331.02 29.21 327.68 23.49&#10;  C 325.07 19.01 320.37 15.86 316.65 12.12&#10;  Q 314.89 10.35 312.59 9.36&#10;  Q 309.60 8.07 306.62 6.64&#10;  Q 309.08 6.68 312.20 4.68&#10;  Q 317.70 1.14 324.72 1.42&#10;  Z"/>
<path fill="#d5d5d5" d="&#10;  M 144.98 2.31&#10;  Q 230.33 2.25 286.50 2.59&#10;  Q 296.99 2.66 306.62 6.64&#10;  Q 309.60 8.07 312.59 9.36&#10;  Q 314.89 10.35 316.65 12.12&#10;  C 320.37 15.86 325.07 19.01 327.68 23.49&#10;  C 331.02 29.21 334.73 36.75 334.72 43.50&#10;  Q 334.68 139.90 334.80 236.28&#10;  L 334.83 241.83&#10;  Q 334.84 242.37 334.29 242.36&#10;  Q 332.73 242.32 332.61 243.75&#10;  Q 331.63 255.34 332.41 271.75&#10;  C 332.50 273.64 332.06 276.61 331.42 278.87&#10;  C 329.89 284.24 329.05 289.71 326.38 294.40&#10;  Q 319.83 305.87 308.66 313.00&#10;  Q 306.05 314.66 302.60 315.32&#10;  Q 292.06 317.34 288.13 317.33&#10;  Q 236.69 317.22 185.25 317.25&#10;  C 182.02 317.25 177.62 316.76 173.91 316.76&#10;  Q 146.39 316.75 118.87 316.60&#10;  C 112.98 316.57 109.11 315.94 104.45 312.19&#10;  Q 94.20 303.93 93.84 289.74&#10;  C 93.54 277.33 94.30 263.67 94.24 253.09&#10;  C 94.09 227.39 94.67 201.69 94.60 176.00&#10;  Q 94.41 115.98 95.15 55.96&#10;  Q 95.25 47.73 96.29 43.13&#10;  Q 97.74 36.76 100.66 30.89&#10;  Q 102.44 27.30 105.90 23.39&#10;  Q 110.19 18.53 112.20 16.68&#10;  C 117.21 12.07 125.29 9.69 131.83 7.13&#10;  Q 133.38 6.53 137.30 5.76&#10;  Q 141.51 4.95 144.98 2.31&#10;  Z&#10;  M 178.05 207.95&#10;  Q 181.75 211.48 184.94 215.48&#10;  C 187.80 219.10 191.03 221.44 194.39 224.37&#10;  C 196.71 226.41 200.05 231.98 203.81 228.81&#10;  C 212.96 221.08 221.61 213.13 229.81 204.39&#10;  C 240.09 193.45 257.96 181.58 253.42 164.74&#10;  Q 252.24 160.34 247.41 154.25&#10;  Q 243.10 148.81 238.41 143.67&#10;  C 234.96 139.88 230.25 137.18 226.92 132.40&#10;  C 222.62 126.24 216.01 122.63 211.43 116.51&#10;  C 207.34 111.06 200.95 108.94 195.34 113.92&#10;  Q 189.27 119.32 187.50 121.27&#10;  Q 176.84 133.07 169.14 140.36&#10;  Q 166.29 143.05 163.19 146.91&#10;  C 160.25 150.57 155.44 154.11 153.63 158.25&#10;  C 150.55 165.30 149.09 174.52 153.48 181.27&#10;  Q 157.24 187.06 162.99 192.62&#10;  C 166.22 195.74 168.65 198.48 171.47 201.52&#10;  Q 172.77 202.91 178.05 207.95&#10;  Z"/>
<path fill="#fdd6cf" d="&#10;  M 330.46 9.60&#10;  Q 331.30 9.62 330.23 9.56&#10;  Q 330.19 8.20 331.25 8.21&#10;  Q 396.38 8.73 461.50 8.39&#10;  Q 469.25 8.35 477.00 8.61&#10;  C 481.61 8.76 491.71 12.97 494.98 17.30&#10;  C 498.31 21.72 502.39 25.40 505.10 29.94&#10;  C 507.89 34.61 510.63 38.91 512.07 44.19&#10;  Q 515.49 56.79 515.30 66.00&#10;  Q 513.86 134.50 514.88 203.00&#10;  Q 515.38 236.28 515.02 269.55&#10;  C 514.96 275.18 514.06 280.67 513.34 286.25&#10;  Q 513.30 286.58 513.05 286.70&#10;  Q 512.74 286.84 512.74 286.50&#10;  Q 513.13 230.00 512.72 173.51&#10;  C 512.46 138.60 512.79 103.66 512.79 68.75&#10;  Q 512.80 55.03 511.35 48.87&#10;  Q 508.95 38.70 502.91 29.80&#10;  Q 494.03 16.72 481.79 11.39&#10;  Q 478.00 9.73 470.75 9.82&#10;  Q 401.02 10.66 330.46 9.60&#10;  Z"/>
<path fill="#d00602" d="&#10;  M 171.47 201.52&#10;  C 168.65 198.48 166.22 195.74 162.99 192.62&#10;  Q 157.24 187.06 153.48 181.27&#10;  C 149.09 174.52 150.55 165.30 153.63 158.25&#10;  C 155.44 154.11 160.25 150.57 163.19 146.91&#10;  Q 166.29 143.05 169.14 140.36&#10;  Q 176.84 133.07 187.50 121.27&#10;  Q 189.27 119.32 195.34 113.92&#10;  C 200.95 108.94 207.34 111.06 211.43 116.51&#10;  C 216.01 122.63 222.62 126.24 226.92 132.40&#10;  C 230.25 137.18 234.96 139.88 238.41 143.67&#10;  Q 243.10 148.81 247.41 154.25&#10;  Q 252.24 160.34 253.42 164.74&#10;  C 257.96 181.58 240.09 193.45 229.81 204.39&#10;  C 221.61 213.13 212.96 221.08 203.81 228.81&#10;  C 200.05 231.98 196.71 226.41 194.39 224.37&#10;  C 191.03 221.44 187.80 219.10 184.94 215.48&#10;  Q 181.75 211.48 178.05 207.95&#10;  Q 172.77 202.91 171.47 201.52&#10;  Z"/>
<path fill="#ffffff" d="&#10;  M 66.24 469.84&#10;  C 73.91 468.09 83.29 460.89 81.25 452.24&#10;  C 79.70 445.69 70.65 441.68 64.75 440.49&#10;  C 52.58 438.04 40.54 435.97 28.76 432.06&#10;  C 22.83 430.09 16.37 423.45 12.55 418.95&#10;  C 8.49 414.17 8.00 404.18 8.41 398.23&#10;  C 9.63 380.32 23.89 369.14 40.34 365.60&#10;  Q 61.86 360.98 81.79 370.67&#10;  Q 85.52 372.49 89.38 375.94&#10;  Q 94.30 380.34 99.35 384.88&#10;  A 1.39 1.38 38.5 0 1 99.56 386.70&#10;  C 95.67 392.20 90.73 396.40 86.72 401.85&#10;  Q 86.39 402.30 86.01 401.88&#10;  Q 81.15 396.56 76.24 392.78&#10;  Q 57.99 378.73 37.08 389.13&#10;  Q 34.92 390.20 33.03 392.64&#10;  C 29.36 397.37 29.67 402.63 33.94 407.06&#10;  Q 42.17 415.59 53.48 416.66&#10;  C 71.66 418.38 89.18 420.98 99.35 434.70&#10;  C 101.63 437.77 102.74 443.35 103.49 447.54&#10;  Q 105.65 459.65 100.29 470.25&#10;  C 95.75 479.23 85.02 486.91 75.16 488.94&#10;  C 71.91 489.61 68.73 490.79 65.57 491.01&#10;  C 55.16 491.77 43.33 491.31 33.06 488.14&#10;  C 26.59 486.15 20.15 481.64 13.91 478.02&#10;  C 10.60 476.10 -0.31 469.21 1.86 464.85&#10;  Q 5.99 456.54 11.76 449.25&#10;  Q 12.10 448.82 12.64 448.76&#10;  C 15.36 448.44 19.49 450.92 21.49 452.00&#10;  C 24.63 453.70 23.66 456.37 25.48 458.71&#10;  C 27.41 461.20 31.50 463.07 34.19 464.73&#10;  C 44.09 470.87 54.81 472.46 66.24 469.84&#10;  Z"/>
<path fill="#ffffff" d="&#10;  M 360.76 427.66&#10;  A 1.27 1.27 0.0 0 0 362.83 428.64&#10;  Q 367.28 425.01 370.83 420.82&#10;  Q 375.57 415.23 376.90 413.90&#10;  C 380.56 410.24 384.58 406.98 387.68 402.78&#10;  C 389.84 399.84 392.08 395.95 396.00 395.88&#10;  Q 406.12 395.71 416.25 395.80&#10;  Q 418.33 395.82 419.39 396.62&#10;  Q 420.60 397.53 419.55 398.62&#10;  C 413.71 404.69 407.73 410.27 402.59 417.18&#10;  C 397.78 423.65 390.98 427.21 385.97 433.24&#10;  A 2.18 2.17 50.1 0 0 385.76 435.72&#10;  Q 391.56 445.82 399.29 454.83&#10;  Q 403.30 459.52 406.08 463.67&#10;  C 411.52 471.80 418.35 479.36 422.30 488.26&#10;  Q 422.85 489.50 421.49 489.50&#10;  Q 410.88 489.47 400.50 489.25&#10;  Q 398.54 489.21 397.78 488.06&#10;  Q 391.43 478.48 384.62 469.23&#10;  Q 382.26 466.03 376.24 459.20&#10;  Q 371.86 454.24 368.20 448.88&#10;  A 2.00 2.00 0.0 0 0 365.03 448.70&#10;  C 363.46 450.52 360.61 452.78 360.64 455.25&#10;  Q 360.79 472.13 360.64 489.00&#10;  Q 360.64 489.72 359.91 489.72&#10;  L 339.42 489.56&#10;  A 0.76 0.76 0.0 0 1 338.67 488.80&#10;  L 338.58 366.59&#10;  Q 338.58 365.26 339.91 365.26&#10;  L 359.18 365.31&#10;  Q 360.56 365.31 360.56 366.68&#10;  L 360.76 427.66&#10;  Z"/>
<path fill="#ffffff" d="&#10;  M 555.37 408.69&#10;  A 0.80 0.80 0.0 0 0 556.81 409.17&#10;  Q 560.60 404.22 564.45 400.20&#10;  C 569.87 394.56 578.18 394.06 585.61 394.94&#10;  A 1.88 1.88 0.0 0 1 587.27 396.82&#10;  L 587.18 411.69&#10;  A 1.51 1.51 0.0 0 1 586.06 413.15&#10;  Q 582.07 414.23 577.74 415.58&#10;  C 562.46 420.34 557.29 433.16 557.27 448.22&#10;  Q 557.25 467.54 557.24 488.04&#10;  Q 557.23 489.83 555.45 489.81&#10;  L 535.82 489.67&#10;  A 1.09 1.09 0.0 0 1 534.74 488.58&#10;  L 534.80 396.50&#10;  A 0.87 0.79 -0.0 0 1 535.67 395.71&#10;  L 554.46 395.71&#10;  A 0.80 0.76 89.6 0 1 555.22 396.50&#10;  L 555.37 408.69&#10;  Z"/>
<path fill="#ffffff" d="&#10;  M 449.76 452.15&#10;  Q 449.99 456.84 452.96 461.27&#10;  Q 461.98 474.72 477.40 473.52&#10;  C 486.38 472.83 489.58 468.03 495.70 462.74&#10;  A 1.05 1.04 -58.1 0 1 496.63 462.52&#10;  Q 498.59 462.99 500.14 464.11&#10;  Q 506.51 468.69 512.20 473.79&#10;  A 0.92 0.91 -49.9 0 1 512.30 475.04&#10;  C 507.93 480.58 502.41 482.67 496.70 486.39&#10;  C 486.46 493.07 469.36 492.66 458.01 489.95&#10;  Q 454.12 489.03 450.68 486.72&#10;  C 444.40 482.50 438.25 477.74 434.47 471.21&#10;  C 427.86 459.80 426.40 446.48 428.26 433.55&#10;  C 429.21 426.94 432.56 420.51 435.35 414.27&#10;  C 436.66 411.35 438.13 409.54 440.87 407.54&#10;  C 444.82 404.66 448.99 401.46 453.19 399.49&#10;  C 475.88 388.87 501.56 397.01 512.19 420.00&#10;  C 516.62 429.57 517.45 440.99 516.59 451.68&#10;  A 0.91 0.91 0.0 0 1 515.72 452.51&#10;  C 511.58 452.66 507.38 451.73 503.75 451.70&#10;  Q 477.06 451.43 450.37 451.51&#10;  Q 449.73 451.51 449.76 452.15&#10;  Z&#10;  M 450.47 435.72&#10;  L 494.85 435.80&#10;  A 0.03 0.03 0.0 0 0 494.88 435.77&#10;  L 494.88 435.73&#10;  A 22.27 21.89 -89.9 0 0 473.03 413.42&#10;  L 472.37 413.42&#10;  A 22.27 21.89 -89.9 0 0 450.44 435.65&#10;  L 450.44 435.69&#10;  A 0.03 0.03 0.0 0 0 450.47 435.72&#10;  Z"/>
<path fill="#ffffff" d="&#10;  M 161.48 491.50&#10;  C 147.98 490.54 136.25 484.89 128.20 473.78&#10;  C 116.56 457.72 114.36 436.13 124.79 418.91&#10;  Q 129.17 411.70 135.58 406.16&#10;  C 149.29 394.30 169.04 392.00 185.58 398.61&#10;  C 196.29 402.88 204.20 410.58 209.67 420.56&#10;  Q 212.90 426.47 214.04 434.02&#10;  Q 215.49 443.58 214.50 452.26&#10;  C 212.37 471.07 196.89 486.78 178.50 490.44&#10;  Q 170.13 492.11 161.48 491.50&#10;  Z&#10;  M 192.03 449.58&#10;  C 193.41 438.95 191.84 427.95 183.40 420.62&#10;  C 180.11 417.77 178.14 415.96 174.25 415.09&#10;  Q 157.22 411.30 146.85 424.41&#10;  Q 143.99 428.02 142.75 432.50&#10;  Q 136.73 454.23 152.33 468.57&#10;  C 157.34 473.18 166.67 473.32 172.95 472.44&#10;  C 179.52 471.51 184.51 466.70 187.90 461.36&#10;  Q 191.17 456.21 192.03 449.58&#10;  Z"/>
<path fill="#ffffff" d="&#10;  M 253.92 432.51&#10;  Q 250.47 442.49 253.01 451.26&#10;  Q 255.14 458.58 261.27 467.51&#10;  C 264.99 472.94 280.44 473.20 285.51 472.17&#10;  Q 288.19 471.62 290.98 468.48&#10;  Q 294.98 463.98 299.18 459.66&#10;  C 302.26 456.51 315.19 463.78 318.91 465.58&#10;  Q 320.50 466.35 319.56 467.85&#10;  Q 312.96 478.45 302.13 485.42&#10;  C 294.02 490.65 283.98 491.71 274.55 491.46&#10;  Q 265.44 491.23 257.79 488.06&#10;  Q 242.19 481.62 234.69 466.60&#10;  C 229.10 455.39 228.81 442.42 231.55 430.22&#10;  Q 232.50 425.97 235.07 421.30&#10;  Q 238.59 414.90 240.01 412.99&#10;  C 246.77 403.97 258.24 397.72 269.52 395.73&#10;  Q 279.12 394.03 287.78 395.70&#10;  C 293.27 396.75 301.36 400.28 305.92 404.14&#10;  C 312.33 409.57 316.13 414.90 317.84 423.22&#10;  A 1.14 1.14 0.0 0 1 316.88 424.58&#10;  Q 308.38 425.74 299.76 426.92&#10;  C 297.58 427.22 296.80 426.37 295.89 424.43&#10;  C 291.56 415.23 282.98 412.46 273.31 414.49&#10;  Q 259.13 417.47 253.92 432.51&#10;  Z"/>
</svg>